<?xml version="1.0" encoding="UTF-8"?>
<!DOCTYPE svg PUBLIC "-//W3C//DTD SVG 1.1//EN" "http://www.w3.org/Graphics/SVG/1.1/DTD/svg11.dtd">
<!-- Creator: CorelDRAW -->
<svg xmlns="http://www.w3.org/2000/svg" xml:space="preserve" width="110.906mm" height="109.478mm" version="1.1" style="shape-rendering:geometricPrecision; text-rendering:geometricPrecision; image-rendering:optimizeQuality; fill-rule:evenodd; clip-rule:evenodd"
viewBox="0 0 11090.6 10947.8"
 xmlns:xlink="http://www.w3.org/1999/xlink"
 xmlns:xodm="http://www.corel.com/coreldraw/odm/2003">
 <defs>
  <linearGradient id="brand-gradient" x1="0%" y1="0%" x2="100%" y2="100%">
    <stop offset="0%" style="stop-color:#ec4899" />
    <stop offset="50%" style="stop-color:#a855f7" />
    <stop offset="100%" style="stop-color:#6366f1" />
  </linearGradient>
  <style type="text/css">
   <![CDATA[
    .fil0 {fill:url(#brand-gradient)}
   ]]>
  </style>
 </defs>
 <g id="Layer_x0020_1">
  <metadata id="CorelCorpID_0Corel-Layer"/>
  <g id="_3077447102928">
   <path class="fil0" d="M5625.15 1736.09c-811.37,1338.56 -1329.04,3779.72 -2194.61,4881.88 -62.43,79.49 -125.25,145.97 -183.77,225.37 -66.2,89.77 -116.6,115.85 -189.51,193.86l-511.54 485.68c-539.16,431.98 -1209.93,790.12 -1872.28,1043.51 -83.66,32.02 -533.14,166.57 -574.45,193.25 -142.25,91.85 -102.46,392.77 293.63,268.64 1216.7,-381.25 2632.58,-1177.51 3323.66,-2176.21 65.75,-94.96 109.95,-141.98 172.56,-236.37 504.74,-760.81 967.15,-2147.05 1278.97,-3019.87 131.29,-367.42 214.5,-510.88 348.35,-825.27 20.43,-48.01 41.67,-95.05 65.11,-139.83l74.54 -103.55c133.89,146.33 388.09,778.43 490.46,1016.98 514.92,1199.84 442.07,1834.23 1301.21,3174.76 212.74,331.97 471.96,563.54 704.58,804.89 590.13,612.31 2366.17,1634.7 2907.33,1501 109.98,-287.44 -91.25,-309.74 -330.59,-395.25 -986.07,-352.27 -2057.4,-942.89 -2693.61,-1730.96 -182.98,-226.61 -340.1,-429.35 -482.62,-693.34 -538.59,-997.43 -540.07,-1329.98 -897.03,-2299.12 -206.94,-561.79 -449.87,-1148.75 -722.99,-1682.47 -81.27,-158.78 -148.23,-433.34 -307.4,-487.58z"/>
   <path class="fil0" d="M5630.25 4391.75c-131.37,63.66 -150.71,339.8 -196.12,497.31 -150.2,520.85 -335.45,973.44 -564.87,1453.74 -159,332.79 -323.55,579.13 -510.58,844.81 -200.08,284.23 -389.53,469.79 -616.75,712.9 -118.44,126.75 -217.12,200.87 -364.39,326.23 -857.57,730.02 -2097.26,1287.49 -3184.34,1520.72 -273.41,58.68 -230.63,328.53 -36.31,346.02 103.66,9.31 444.76,-76.14 557.19,-105.63 1510.54,-396.12 3181.62,-1443.85 4040.12,-2711.65 278.43,-411.16 506.4,-845.02 695.64,-1324.41 52.66,-133.43 121.13,-367.42 180.41,-479.97 51.64,45.9 66.6,143.07 92.46,233.62l277.19 721.57c233.66,507.4 447.04,822.63 759.73,1235.22 769.97,1015.83 2396.93,2002.68 3627.53,2332.03 61.28,16.4 814.18,288.1 661.38,-119.47 -29.07,-77.56 -102.94,-90.86 -198.24,-113.73 -717.88,-172.44 -1324,-427.64 -1906.48,-754.08 -692.08,-387.84 -969.97,-645.42 -1496.83,-1136.87 -932.58,-869.98 -1368.41,-2077.44 -1696.21,-3291.27 -31.69,-117.35 -25.32,-152.46 -120.53,-187.09z"/>
   <path class="fil0" d="M3066.87 9839.71c78.68,-67.62 890.47,-453.32 1400.92,-906.91l867.71 -870.55c89.86,-109.05 143.31,-197.73 269.16,-315.3l379.11 460.66c474.53,617.2 1378.68,1313.57 2106.38,1652.4 -117.02,129.47 -965.76,473.93 -1100.97,519.52 -1285.81,433.41 -2659.17,239.42 -3804.87,-447.33l-117.44 -92.49zm2512.23 -2760c-166.21,76.9 -593.24,1333.58 -2589.43,2396.75 -108.59,57.83 -351.74,145.43 -432.71,206.25 -208.82,156.94 81.82,317.71 121.98,346.2 1445.03,1024.87 3262.95,1203.65 4917.89,498.89 266.89,-113.64 596.87,-287.32 816.53,-437.7 485.95,-332.67 -0.48,-433.53 -266.43,-592.97 -702.72,-421.23 -1237.34,-777.61 -1763.11,-1382.85 -54,-62.16 -97.72,-95.09 -147.39,-158.96 -50.79,-65.27 -89.26,-99.32 -141.86,-165.16 -138.81,-173.83 -440.08,-671.41 -515.47,-710.45z"/>
   <path class="fil0" d="M5655.39 540.12c324.69,251.42 1161.86,2028.67 1404.31,2602.81 294.11,696.55 560,1482.5 768.82,2221.08 37.56,132.89 58.31,309.25 185.25,338.65 204.34,47.38 231.23,-148.08 194.25,-304.99 -300.82,-1276.01 -1099.68,-3118.83 -1741.63,-4269.42l-576.74 -932.4c-51,-74.88 -154.13,-245.74 -281.64,-175.1 -256.61,142.1 -1272.2,2131.4 -1454.19,2563.72 -207.75,493.47 -1045.68,2524.25 -1074.84,2940.44 -9.76,139.44 182.17,525.23 412.17,-124.37 88.41,-249.67 153.79,-516.65 236.16,-761.27 173.13,-514.14 358.83,-981.68 556.95,-1463.89 319.1,-776.67 913.89,-1979.75 1371.13,-2635.26z"/>
   <path class="fil0" d="M3064.45 367.14c-250.15,102.21 -678.06,431.56 -852.97,581.91 -220.54,189.51 -542.84,501.87 -726.1,732.29 -1388.14,1745.55 -1735.49,4082.36 -744.77,6142.51 65.02,135.21 171.47,421.71 383.73,299.76 209.06,-120.13 -129.86,-543.23 -290.49,-980.63 -701.41,-1910.34 -164.94,-4081.39 1150.26,-5500.29 443.17,-478.12 685.97,-636.23 1229.33,-943.37 208.48,-117.84 128.78,-445.64 -148.99,-332.18z"/>
   <path class="fil0" d="M9891.63 7997.25c12.12,104.19 200.66,301.19 385.82,-58.1 738.27,-1432.43 826.71,-3118.07 235.13,-4691.01 -281.69,-748.97 -612.09,-1212.8 -1087.16,-1779.67 -125.85,-150.13 -1655.06,-1587.98 -1565.6,-860.1 14.69,119.47 427.12,309.8 612.37,458.03l569.89 504.05c542.21,527.1 1081.24,1457.94 1300,2252.26 357.44,1297.83 268.34,2427.78 -238.73,3661.92 -48.68,118.44 -225.77,391.92 -211.72,512.62z"/>
   <path class="fil0" d="M1663.38 6095.4c-40.82,-77.81 -36.95,-126.54 -45.35,-234.35 -33.36,-677.85 -34.12,-1090.46 145.78,-1726.49 275.02,-972.29 840.04,-1750.15 1609.32,-2330.4 89.52,-67.53 232.77,-115.9 210.14,-270.48 -62.03,-424.01 -783.59,279.31 -868.98,353.61 -690.66,601.4 -1171.8,1577.98 -1379.53,2533.05 -173.53,797.91 -84.18,1805.68 225.74,2558.15 93.15,226.22 171.62,578.05 467.12,532.03 174.01,-190.42 -52.24,-435.67 -144.7,-674.73 -88.86,-229.76 -173.95,-486.92 -219.54,-740.39z"/>
   <path class="fil0" d="M9013.13 7309.29c-0.94,170.8 183.19,224.01 290.64,117.59 247.7,-245.37 454.58,-1272.62 500.09,-1670.16 165.43,-1445.34 -441.81,-2916.81 -1470.05,-3887.68 -189.21,-178.67 -445.83,-442.5 -662.89,-371.92 -116.66,330.67 194.07,377.57 428.3,632.43 59.22,64.42 82.15,90.34 137.26,143.97 516.11,502.39 858.41,1106.51 1076.6,1862.64 252.84,876.27 221.2,1938.39 -156.03,2786.92 -36.17,81.4 -143.47,305.68 -143.92,386.21z"/>
   <path class="fil0" d="M1663.38 6095.4c-11.24,-110.11 -2.03,-145.31 -45.35,-234.35 8.4,107.81 4.53,156.54 45.35,234.35z"/>
  </g>
 </g>
</svg>
